# xmcd
#
# Track frame offsets: 
#        150
#        17811
#        34697
#        55524
#        72696
#        92565
#        115462
#        135272
#        155699
#        179598
#        200707
#        218736
#        234303
#        247330
#
# Disc length: 3497 seconds
#
# Revision: 1
# Processed by: cddbd v1.5.2PL0 Copyright (c) Steve Scherf et al.
# Submitted via: ExactAudioCopy v1.1
#
DISCID=cb0da70e
DTITLE=Ruby Turner - All That I Am
DYEAR=2014
DGENRE=R&B
TTITLE0=Mighty Hard Time (A Prayer)
TTITLE1=Hello Baby
TTITLE2=Putting You First
TTITLE3=Fire In My Heart (Featuring Passenger)
TTITLE4=Move On
TTITLE5=Master Plan
TTITLE6=I Didn't Know What Time It Was
TTITLE7=The Dark End Of The Street
TTITLE8=Kamikaze Waltz
TTITLE9=He Knows
TTITLE10=Trouble In Mind
TTITLE11=Ask Me (Acoustic Version) 
TTITLE12=Fire In My Heart (Acoustic Version) (Featuring Passenger)
TTITLE13=Move On (Soren Andersen Radio Mix)
EXTD=
EXTT0=
EXTT1=
EXTT2=
EXTT3=
EXTT4=
EXTT5=
EXTT6=
EXTT7=
EXTT8=
EXTT9=
EXTT10=
EXTT11=
EXTT12=
EXTT13=
PLAYORDER=
